<svg xmlns="http://www.w3.org/2000/svg" width="18.673" height="23.055" viewBox="0 0 18.673 23.055"><defs><style>.a{fill:#c1c1c1;}</style></defs><g transform="translate(-1228.328 -396.845)"><path class="a" d="M-219.5-214.1h18.673v1.444H-219.5Z" transform="translate(1447.828 613.785)"/><path class="a" d="M-200.314-216.438h-1.341v-1.444a.758.758,0,0,0-.766-.77h-2.873a.758.758,0,0,0-.766.77v1.444H-207.4v-1.444A2.131,2.131,0,0,1-205.293-220h2.873a2.131,2.131,0,0,1,2.107,2.118v1.444" transform="translate(1441.521 616.845)"/><path class="a" d="M-207.5-205.1h1.436v11.552H-207.5Z" transform="translate(1441.574 609.116)"/><path class="a" d="M-201.5-205.1h1.436v11.552H-201.5Z" transform="translate(1438.445 609.116)"/><path class="a" d="M-195.5-205.1h1.436v11.552H-195.5Z" transform="translate(1435.318 609.116)"/><path class="a" d="M-204.291-193.159h-8.618a2.329,2.329,0,0,1-2.25-2.118L-216.5-212.6l1.436-.1,1.341,17.327a.869.869,0,0,0,.814.77h8.618a.834.834,0,0,0,.814-.77l1.341-17.327,1.436.1-1.341,17.327a2.291,2.291,0,0,1-2.25,2.118" transform="translate(1446.265 613.058)"/><g transform="translate(1229.765 400.358)"><path class="a" d="M-207.5-205.1h1.436v11.552H-207.5Z" transform="translate(211.81 208.758)"/><path class="a" d="M-201.5-205.1h1.436v11.552H-201.5Z" transform="translate(208.681 208.758)"/><path class="a" d="M-195.5-205.1h1.436v11.552H-195.5Z" transform="translate(205.554 208.758)"/><path class="a" d="M-204.291-193.159h-8.618a2.329,2.329,0,0,1-2.25-2.118L-216.5-212.6l1.436-.1,1.341,17.327a.869.869,0,0,0,.814.77h8.618a.834.834,0,0,0,.814-.77l1.341-17.327,1.436.1-1.341,17.327a2.291,2.291,0,0,1-2.25,2.118" transform="translate(216.5 212.7)"/></g></g></svg>